<?xml version="1.0" encoding="UTF-8" standalone="no"?>
<!-- Created with Inkscape (http://www.inkscape.org/) -->

<svg
   width="80"
   height="80"
   viewBox="0 0 21.166667 21.166667"
   version="1.1"
   id="svg356"
   xml:space="preserve"
   inkscape:version="1.2.1 (9c6d41e410, 2022-07-14)"
   sodipodi:docname="favicon.svg"
   xmlns:inkscape="http://www.inkscape.org/namespaces/inkscape"
   xmlns:sodipodi="http://sodipodi.sourceforge.net/DTD/sodipodi-0.dtd"
   xmlns="http://www.w3.org/2000/svg"
   xmlns:svg="http://www.w3.org/2000/svg"><sodipodi:namedview
     id="namedview358"
     pagecolor="#ffffff"
     bordercolor="#666666"
     borderopacity="1.0"
     inkscape:showpageshadow="2"
     inkscape:pageopacity="0.0"
     inkscape:pagecheckerboard="0"
     inkscape:deskcolor="#d1d1d1"
     inkscape:document-units="mm"
     showgrid="false"
     inkscape:zoom="1.4788159"
     inkscape:cx="77.42681"
     inkscape:cy="112.59008"
     inkscape:window-width="1920"
     inkscape:window-height="991"
     inkscape:window-x="-9"
     inkscape:window-y="-9"
     inkscape:window-maximized="1"
     inkscape:current-layer="layer1" /><defs
     id="defs353" /><g
     inkscape:label="Réteg 1"
     inkscape:groupmode="layer"
     id="layer1"
     transform="translate(-59.607876,-80.809497)"><g
       id="g545"
       transform="translate(10.938134,15.746992)"><path
         style="font-size:36.0621px;line-height:1.25;font-family:'Arial Rounded MT Bold';-inkscape-font-specification:'Arial Rounded MT Bold, Normal';fill:#ffffff;fill-opacity:1;stroke-width:0.459951"
         d="m 59.227728,66.338881 c -1.363881,0 -2.610096,0.223601 -3.739223,0.670777 -1.129121,0.435996 -2.090646,1.062372 -2.884381,1.878468 -0.793743,0.816096 -1.40297,1.799838 -1.827778,2.951316 -0.424817,1.151478 -0.637311,2.420396 -0.637311,3.806642 0,1.375066 0.206946,2.632387 0.620577,3.772684 0.424817,1.12912 1.039599,2.112863 1.844512,2.951317 0.816091,0.827276 1.777616,1.464757 2.884381,1.911934 1.106764,0.447176 2.352971,0.670775 3.739223,0.670775 1.397429,0 2.655235,-0.218047 3.773177,-0.654042 1.117942,-0.447177 2.079475,-1.084658 2.884388,-1.911934 0.804913,-0.827276 1.419688,-1.81657 1.844504,-2.96805 0.424817,-1.151478 0.637319,-2.408797 0.637319,-3.772684 0,-1.375066 -0.212502,-2.632877 -0.637319,-3.773177 -0.41363,-1.140299 -1.022858,-2.12404 -1.827778,-2.951317 -0.804913,-0.827275 -1.772001,-1.464757 -2.901114,-1.911932 -1.12912,-0.447176 -2.386933,-0.670777 -3.773177,-0.670777 z"
         id="path345" /><path
         id="path513-3"
         style="font-size:36.0621px;line-height:1.25;font-family:'Arial Rounded MT Bold';-inkscape-font-specification:'Arial Rounded MT Bold, Normal';fill:#7a3050;fill-opacity:1;stroke-width:0.4787"
         d="m 59.226693,65.959497 c -1.419478,0 -2.716493,0.232715 -3.891644,0.698119 -1.175152,0.45377 -2.175871,1.105679 -3.001963,1.955042 -0.826092,0.849363 -1.460157,1.873205 -1.902284,3.071622 -0.442134,1.198416 -0.663287,2.51906 -0.663287,3.961814 0,1.431119 0.21538,2.739693 0.645872,3.926473 0.442134,1.175147 1.081979,2.19899 1.919699,3.071622 0.849363,0.860999 1.850082,1.524466 3.001963,1.989872 1.151881,0.465404 2.448888,0.698118 3.891644,0.698118 1.454392,0 2.763477,-0.226935 3.926986,-0.680704 1.163516,-0.465405 2.164243,-1.128872 3.00197,-1.989871 0.83772,-0.860998 1.477557,-1.89062 1.919692,-3.089037 0.442134,-1.198417 0.663295,-2.50699 0.663295,-3.926473 0,-1.431119 -0.221161,-2.740203 -0.663295,-3.926985 -0.430492,-1.186781 -1.064556,-2.210624 -1.902284,-3.071623 -0.837727,-0.860998 -1.844234,-1.524466 -3.019378,-1.98987 -1.175144,-0.465404 -2.484229,-0.698119 -3.926986,-0.698119 z m -0.02152,0.776997 c 2.63132,0 4.72171,0.782887 6.270788,2.348406 1.570303,1.565517 2.355574,3.753581 2.355574,6.56478 0,2.77753 -0.785271,4.95733 -2.355574,6.539682 -1.549078,1.565517 -3.639468,2.348406 -6.270788,2.348406 -1.740049,0 -3.256898,-0.353231 -4.551341,-1.06024 -1.273205,-0.723842 -2.260197,-1.759257 -2.960475,-3.105939 -0.679054,-1.346681 -1.018749,-2.920722 -1.018749,-4.721909 0,-1.818021 0.350243,-3.408587 1.050506,-4.772105 0.700271,-1.363515 1.697789,-2.390667 2.992232,-3.080841 1.294429,-0.707008 2.790211,-1.06024 4.487827,-1.06024 z" /><path
         d="m 57.064669,73.36804 c -0.398194,0 -0.740514,-0.122255 -1.026936,-0.366763 -0.279435,-0.244508 -0.419156,-0.590312 -0.419156,-1.037412 0,-0.405185 0.143207,-0.737018 0.429637,-0.995497 0.293409,-0.265466 0.632228,-0.398198 1.016455,-0.398198 0.370254,0 0.698584,0.118761 0.985021,0.356282 0.286422,0.237521 0.429637,0.583327 0.429637,1.037414 0,0.440114 -0.139729,0.785918 -0.419164,1.037412 -0.279435,0.244508 -0.611273,0.366762 -0.995494,0.366762 z"
         style="font-size:36.0621px;line-height:1.25;font-family:'Arial Rounded MT Bold';-inkscape-font-specification:'Arial Rounded MT Bold, Normal';fill:#000000;fill-opacity:1;stroke-width:0.28742"
         id="path554-6" /></g></g></svg>
