<svg width="406.134" height="100" viewBox="0 0 81.227 20" xmlns="http://www.w3.org/2000/svg"><g font-size="36.062" font-family="Arial Rounded MT Bold"><path style="line-height:1.25;-inkscape-font-specification:'Arial Rounded MT Bold, Normal'" d="M55.766 5.643c-1.031 0-1.973.169-2.827.507-.853.33-1.58.803-2.18 1.42-.6.617-1.06 1.36-1.382 2.23-.32.871-.482 1.83-.482 2.878 0 1.04.157 1.99.47 2.852a6.474 6.474 0 001.394 2.23 6.388 6.388 0 002.18 1.446c.837.338 1.779.507 2.827.507 1.056 0 2.007-.165 2.852-.494a6.23 6.23 0 002.18-1.445 6.298 6.298 0 001.394-2.244c.322-.87.482-1.82.482-2.852 0-1.04-.16-1.99-.482-2.852a6.173 6.173 0 00-1.381-2.23 6.205 6.205 0 00-2.193-1.446c-.854-.338-1.804-.507-2.852-.507z" fill="#fff"/><path style="line-height:1.25;-inkscape-font-specification:'Arial Rounded MT Bold, Normal'" d="M55.765 5.356c-1.073 0-2.054.176-2.942.528a6.268 6.268 0 00-2.27 1.478 6.516 6.516 0 00-1.437 2.321c-.334.906-.501 1.905-.501 2.995 0 1.082.162 2.071.488 2.968a6.738 6.738 0 001.45 2.322 6.648 6.648 0 002.27 1.504c.87.352 1.851.528 2.942.528 1.1 0 2.089-.172 2.968-.515a6.483 6.483 0 002.27-1.504 6.554 6.554 0 001.45-2.335c.335-.906.502-1.895.502-2.968 0-1.082-.167-2.071-.501-2.968a6.425 6.425 0 00-1.438-2.322 6.457 6.457 0 00-2.283-1.504c-.888-.352-1.878-.528-2.968-.528zm-.016.587c1.989 0 3.569.592 4.74 1.776 1.187 1.183 1.78 2.837 1.78 4.962 0 2.1-.593 3.747-1.78 4.943-1.171 1.184-2.751 1.776-4.74 1.776-1.316 0-2.462-.268-3.44-.802-.963-.547-1.71-1.33-2.239-2.348-.513-1.018-.77-2.208-.77-3.57 0-1.373.265-2.576.794-3.606.53-1.031 1.284-1.807 2.262-2.33.979-.534 2.11-.8 3.393-.8z" fill="#7a3050"/><path d="M3.918 2.375v6.78l7.691-8.02q.555-.58.937-.858Q12.942 0 13.588 0q.845 0 1.36.501.527.488.527 1.2 0 .858-.884 1.703L9.828 7.916l5.489 7.862q.58.818.87 1.438.29.607.29 1.188 0 .646-.514 1.121-.501.475-1.372.475-.818 0-1.332-.343-.515-.356-.871-.937-.356-.58-.633-1.055L7.124 10.54l-3.206 3.074v3.997q0 1.214-.554 1.807Q2.81 20 1.94 20q-.501 0-.963-.264-.461-.264-.712-.712-.185-.37-.224-.858Q0 17.678 0 16.755V2.375Q0 1.187.515.594 1.042 0 1.939 0q.884 0 1.425.594.554.58.554 1.78z" style="line-height:1.25;-inkscape-font-specification:'Arial Rounded MT Bold, Normal'" fill="#112f20"/><path d="M28.047 17.968v-.461q-.646.817-1.358 1.372-.713.554-1.557.818-.844.277-1.926.277-1.306 0-2.349-.541-1.029-.541-1.596-1.491-.673-1.148-.673-3.298V7.507q0-1.082.488-1.61.489-.54 1.293-.54.818 0 1.32.54.5.541.5 1.61v5.765q0 1.253.212 2.11.211.845.752 1.333.554.475 1.49.475.911 0 1.716-.541.805-.54 1.174-1.412.303-.765.303-3.35v-4.38q0-1.069.502-1.61.501-.54 1.306-.54.804 0 1.293.54.488.528.488 1.61v10.435q0 1.029-.475 1.543-.462.515-1.2.515-.74 0-1.228-.528-.475-.54-.475-1.504z" style="line-height:1.25;-inkscape-font-specification:'Arial Rounded MT Bold, Normal'" fill="#1b8392"/><path d="M43.984 18.35l-3.18-5.223-1.952 1.847v2.862q0 1.043-.554 1.61-.54.554-1.253.554-.831 0-1.306-.554-.475-.554-.475-1.636V2.454q0-1.2.462-1.82Q36.187 0 37.045 0q.83 0 1.319.567.488.568.488 1.676v8.733l4.05-4.248q.752-.791 1.148-1.082.396-.29.963-.29.673 0 1.121.436.449.422.449 1.068 0 .792-1.464 2.111l-1.913 1.755L46.9 16.53q.409.647.58.99.185.33.185.633 0 .858-.475 1.359-.462.488-1.227.488-.66 0-1.016-.356t-.963-1.293z" style="line-height:1.25;-inkscape-font-specification:'Arial Rounded MT Bold, Normal'" fill="#e12346"/><path d="M69.367 14.802v3.008q0 1.095-.515 1.65-.514.54-1.306.54-.778 0-1.28-.554-.501-.554-.501-1.636V7.784q0-2.428 1.755-2.428.897 0 1.293.567.395.568.435 1.676.646-1.108 1.32-1.676.685-.567 1.82-.567 1.134 0 2.203.567 1.068.568 1.068 1.504 0 .66-.461 1.095-.449.423-.977.423-.197 0-.963-.238-.752-.25-1.332-.25-.792 0-1.293.422-.501.409-.778 1.227-.277.817-.383 1.952-.105 1.121-.105 2.744z" style="line-height:1.25;-inkscape-font-specification:'Arial Rounded MT Bold, Normal'" fill="#e57e12"/><path d="M81.227 7.401V17.81c0 .721-.172 1.266-.515 1.636-.343.37-.778.554-1.306.554s-.959-.19-1.293-.567c-.325-.379-.488-.92-.488-1.623V7.507c0-.713.163-1.25.488-1.61.334-.36.765-.54 1.293-.54.528 0 .963.18 1.306.54.343.36.515.862.515 1.504zm-1.781-3.72c-.502 0-.933-.154-1.293-.462-.352-.308-.528-.743-.528-1.306 0-.51.18-.928.541-1.253a1.85 1.85 0 011.28-.502c.466 0 .88.15 1.24.449.36.299.54.734.54 1.306 0 .554-.175.99-.527 1.306a1.84 1.84 0 01-1.253.462z" style="line-height:1.25;-inkscape-font-specification:'Arial Rounded MT Bold, Normal'" fill="#862303"/><path d="M54.13 10.956c-.3 0-.56-.092-.776-.277-.21-.185-.317-.446-.317-.784 0-.306.109-.557.325-.753.222-.2.478-.3.769-.3.28 0 .528.09.744.269.217.18.325.44.325.784 0 .333-.106.594-.317.784a1.105 1.105 0 01-.752.277z" style="line-height:1.25;-inkscape-font-specification:'Arial Rounded MT Bold, Normal'"/></g></svg>